HIERARCHY
ROOT Hips
{
	OFFSET 0.000000 0.000000 0.000000
	CHANNELS 6 Xposition Yposition Zposition Zrotation Yrotation Xrotation
	JOINT LHipJoint
	{
		OFFSET 0.000000 0.000000 0.000000
		CHANNELS 3 Zrotation Yrotation Xrotation
		JOINT LeftHip
		{
			OFFSET 0.070429 -0.092715 0.040477
			CHANNELS 3 Zrotation Yrotation Xrotation
			JOINT LeftKnee
			{
				OFFSET 0.140731 -0.386656 0.000000
				CHANNELS 3 Zrotation Yrotation Xrotation
				JOINT LeftAnkle
				{
					OFFSET 0.133642 -0.367180 0.000000
					CHANNELS 3 Zrotation Yrotation Xrotation
					JOINT LeftToe
					{
						OFFSET 0.008365 -0.022983 0.124964
						CHANNELS 3 Zrotation Yrotation Xrotation
						End Site
						{
							OFFSET 0.000000 0.000000 0.064059
						}
					}
				}
			}
		}
	}
	JOINT RHipJoint
	{
		OFFSET 0.000000 0.000000 0.000000
		CHANNELS 3 Zrotation Yrotation Xrotation
		JOINT RightHip
		{
			OFFSET -0.066785 -0.092715 0.040477
			CHANNELS 3 Zrotation Yrotation Xrotation
			JOINT RightKnee
			{
				OFFSET -0.139168 -0.382361 0.000000
				CHANNELS 3 Zrotation Yrotation Xrotation
				JOINT RightAnkle
				{
					OFFSET -0.134591 -0.369785 0.000000
					CHANNELS 3 Zrotation Yrotation Xrotation
					JOINT RightToe
					{
						OFFSET -0.009852 -0.027067 0.114539
						CHANNELS 3 Zrotation Yrotation Xrotation
						End Site
						{
							OFFSET 0.000000 0.000000 0.059309
						}
					}
				}
			}
		}
	}
	JOINT lowerback
	{
		OFFSET 0.000000 0.000000 0.000000
		CHANNELS 3 Zrotation Yrotation Xrotation
		JOINT Chest
		{
			OFFSET -0.001301 0.112132 0.000180
			CHANNELS 3 Zrotation Yrotation Xrotation
			JOINT Chest2
			{
				OFFSET -0.000405 0.112342 -0.000301
				CHANNELS 3 Zrotation Yrotation Xrotation
				JOINT lowerneck
				{
					OFFSET 0.000000 0.000000 0.000000
					CHANNELS 3 Zrotation Yrotation Xrotation
					JOINT Neck
					{
						OFFSET 0.000054 0.090883 0.006038
						CHANNELS 3 Zrotation Yrotation Xrotation
						JOINT Head
						{
							OFFSET -0.000598 0.090268 0.000743
							CHANNELS 3 Zrotation Yrotation Xrotation
							End Site
							{
								OFFSET -0.000259 0.092175 -0.000334
							}
						}
					}
				}
				JOINT LeftCollar
				{
					OFFSET 0.000000 0.000000 0.000000
					CHANNELS 3 Zrotation Yrotation Xrotation
					JOINT LeftShoulder
					{
						OFFSET 0.172369 0.083022 -0.000958
						CHANNELS 3 Zrotation Xrotation Yrotation
						JOINT LeftElbow
						{
							OFFSET 0.000000 -0.239947 0.000000
							CHANNELS 3 Zrotation Xrotation Yrotation
							JOINT LeftWrist
							{
								OFFSET 0.000000 -0.184906 0.000000
								CHANNELS 3 Zrotation Xrotation Yrotation
								JOINT lhand
								{
									OFFSET 0.000000 0.000000 0.000000
									CHANNELS 3 Zrotation Xrotation Yrotation
									JOINT LFingers
									{
										OFFSET 0.000000 -0.037129 0.000000
										CHANNELS 3 Zrotation Xrotation Yrotation
										End Site
										{
											OFFSET 0.000000 -0.029935 0.000000
										}
									}
								}
								JOINT LThumb
								{
									OFFSET 0.000000 0.000000 0.000000
									CHANNELS 3 Zrotation Xrotation Yrotation
									End Site
									{
										OFFSET 0.000000 -0.030392 0.030392
									}
								}
							}
						}
					}
				}
				JOINT RightCollar
				{
					OFFSET 0.000000 0.000000 0.000000
					CHANNELS 3 Zrotation Yrotation Xrotation
					JOINT RightShoulder
					{
						OFFSET -0.160129 0.074291 -0.012798
						CHANNELS 3 Zrotation Xrotation Yrotation
						JOINT RightElbow
						{
							OFFSET 0.000000 -0.251781 0.000000
							CHANNELS 3 Zrotation Xrotation Yrotation
							JOINT RightWrist
							{
								OFFSET 0.000000 -0.194402 0.000000
								CHANNELS 3 Zrotation Xrotation Yrotation
								JOINT rhand
								{
									OFFSET 0.000000 0.000000 0.000000
									CHANNELS 3 Zrotation Xrotation Yrotation
									JOINT RFingers
									{
										OFFSET 0.000000 -0.034798 0.000000
										CHANNELS 3 Zrotation Xrotation Yrotation
										End Site
										{
											OFFSET 0.000000 -0.028055 0.000000
										}
									}
								}
								JOINT RThumb
								{
									OFFSET 0.000000 0.000000 0.000000
									CHANNELS 3 Zrotation Xrotation Yrotation
									End Site
									{
										OFFSET 0.000000 -0.028484 0.028484
									}
								}
							}
						}
					}
				}
			}
		}
	}
}
MOTION
Frames: 4
Frame Time: 0.008333
0.447821 0.882468 -1.550415 -3.465716 -5.300599 4.151221 -0.000003 -0.000001 0.000003 -20.117089 11.663504 -2.320191 4.362609 12.627902 37.991011 5.587596 7.059586 -47.352687 0.224602 3.050903 8.420600 0.000003 0.000001 0.000004 1.735601 9.722102 -28.470592 -7.644178 -15.851204 51.270900 -0.175505 -6.606608 -12.937002 -4.767612 13.117204 -39.809003 3.303600 6.074800 -1.418999 1.603400 8.077999 -1.487400 -0.093000 4.019100 -0.517700 6.350400 -6.741900 -7.663600 0.369499 -9.870399 10.036604 -1.573899 -4.589000 4.393999 0.000001 0.000000 0.000000 3.282406 27.960114 -35.106199 42.934822 -49.715700 20.651043 12.417006 -20.720098 -12.672894 0.000002 0.000002 -0.000001 -7.125003 0.000001 -0.000002 -13.380186 42.549521 -0.825121 -0.000004 -0.000000 -0.000000 -27.816311 -41.940305 17.926890 -138.021485 -49.199413 -100.075699 -21.047411 -48.109202 22.684586 -0.000002 0.000000 0.000003 7.125004 0.000002 0.000002 8.371784 53.912401 -1.844189 
0.439682 0.880385 -1.546193 -3.982408 -6.160598 4.051120 -0.000003 -0.000003 0.000001 -19.341590 11.690701 -1.976090 4.498213 12.795401 38.607214 5.683390 8.185386 -48.167481 0.160202 2.578401 7.107200 -0.000002 -0.000002 0.000001 3.523997 7.858297 -28.281691 -7.533277 -15.765002 50.863804 -0.260105 -7.523111 -15.178900 -4.485913 12.780407 -38.551811 3.317500 6.252601 -1.335900 1.806000 8.316798 -1.390701 0.104900 4.140398 -0.487000 6.063399 -6.625701 -7.851301 0.368600 -9.699101 10.124798 -1.530999 -4.511100 4.484100 0.000002 -0.000000 -0.000000 2.631906 27.925413 -34.545499 39.616412 -47.841001 18.154433 11.419702 -19.740602 -13.412794 0.000000 0.000003 -0.000002 -7.125004 0.000004 -0.000003 -14.457291 43.177717 -0.665017 -0.000004 -0.000000 -0.000000 -25.506807 -40.616400 19.847492 -136.625380 -49.946913 -99.012908 -21.880911 -47.431207 23.281183 0.000002 0.000002 0.000003 7.125004 0.000003 0.000003 7.741193 54.689707 -1.850886 
0.431593 0.878647 -1.542084 -4.594114 -7.082499 3.977411 -0.000001 0.000002 0.000001 -18.456192 11.780703 -1.738392 4.675710 13.009005 39.402006 5.734790 9.309783 -48.823080 0.099401 2.032999 5.596899 0.000001 0.000002 0.000003 5.282798 6.358796 -28.088292 -7.425979 -15.680403 50.467704 -0.366506 -8.036310 -17.086002 -4.174512 12.389006 -37.122409 3.439699 6.423401 -1.162801 2.024800 8.550099 -1.297000 0.249800 4.257499 -0.497900 5.841299 -6.468399 -8.052299 0.318299 -9.471098 10.128702 -1.509400 -4.408500 4.541999 0.000001 0.000000 0.000000 2.037498 28.093116 -33.906196 36.850722 -46.089300 16.132437 10.375108 -18.697706 -13.886393 0.000000 -0.000002 -0.000004 -7.125003 -0.000002 -0.000003 -15.514590 43.531019 -0.577226 -0.000002 0.000001 0.000001 -23.528105 -39.565606 21.577597 -134.941192 -50.797305 -97.715692 -22.770801 -46.774904 24.002594 -0.000001 0.000003 0.000001 7.125002 0.000003 0.000000 7.091092 55.616605 -1.854289 
0.423573 0.877309 -1.538116 -5.292510 -8.032799 3.950312 -0.000002 0.000003 -0.000002 -17.466590 11.883501 -1.662992 4.915612 13.288101 40.456706 5.726593 10.425784 -49.266581 0.048100 1.415499 3.892799 0.000003 -0.000002 0.000001 6.970204 5.243395 -27.869597 -7.322379 -15.597502 50.083305 -0.490510 -8.148410 -18.635903 -3.905310 12.033303 -35.849798 3.662500 6.579899 -0.915100 2.249199 8.768900 -1.217000 0.335600 4.365800 -0.551500 5.701701 -6.278298 -8.227901 0.232900 -9.198499 10.037399 -1.505900 -4.286300 4.555200 0.000002 0.000001 0.000000 1.522603 28.442812 -33.287101 34.495713 -44.448699 14.459125 9.371705 -17.648102 -13.868496 0.000003 0.000002 0.000004 -7.125004 0.000001 0.000004 -16.391190 43.406825 -0.663517 -0.000002 0.000001 0.000001 -21.838611 -38.796711 23.127492 -133.023890 -51.700608 -96.220290 -23.779609 -46.171201 24.830886 -0.000001 0.000001 -0.000000 7.125003 0.000002 -0.000000 6.346392 56.690505 -1.823680 
